<svg width="192" height="192" viewBox="0 0 192 192" fill="none" xmlns="http://www.w3.org/2000/svg">
<mask id="mask0_8617_30" style="mask-type:luminance" maskUnits="userSpaceOnUse" x="0" y="0" width="192" height="192">
<path d="M0 96C0 42.9807 42.9807 0 96 0C149.019 0 192 42.9807 192 96C192 149.019 149.019 192 96 192C42.9807 192 0 149.019 0 96Z" fill="white"/>
</mask>
<g mask="url(#mask0_8617_30)">
<path d="M192 96C192 42.9807 149.019 0 96 0C42.9807 0 0 42.9807 0 96C0 149.019 42.9807 192 96 192C149.019 192 192 149.019 192 96Z" fill="#00EF8B"/>
</g>
<path d="M47.5374 58.5508C47.5374 62.2034 51.1682 64.7446 54.6 63.4939C56.6773 62.7368 58.0596 60.7617 58.0596 58.5508V51.8852C58.0596 48.9795 55.7041 46.624 52.7985 46.624C49.8928 46.624 47.5374 48.9795 47.5374 51.8851V58.5508Z" fill="black"/>
<path d="M30.1032 78.8045C38.5799 75.7274 47.5374 81.9992 47.5374 91.0171C47.5374 96.0849 47.5374 101.153 47.5374 106.221C47.5374 109.126 49.8929 111.482 52.7985 111.482C55.7042 111.482 58.0597 109.126 58.0597 106.221C58.0597 97.4262 58.0597 88.6312 58.0597 79.8343C58.0597 73.1077 62.2669 67.0993 68.5879 64.7989C73.3966 63.0489 78.2054 61.2988 83.0142 59.5487C88.4176 57.5823 94.132 61.584 94.132 67.3341C94.132 71.9097 90.4228 75.6186 85.8472 75.6186C81.5944 75.6186 77.3421 75.6186 73.0875 75.6186C69.7659 75.6186 67.0798 78.3053 67.0798 81.6276C67.0798 89.5751 67.0798 97.5239 67.0798 105.472C67.0798 108.787 69.7659 111.482 73.0875 111.482C81.857 111.482 90.6265 111.482 99.396 111.482C102.3 111.482 104.654 109.127 104.654 106.223C104.654 103.319 102.3 100.965 99.396 100.965C94.6009 100.965 89.8066 100.965 85.0136 100.965C80.9196 100.965 77.6008 97.6444 77.6008 93.5505C77.6008 89.4565 80.9196 86.1396 85.0136 86.1396C87.0513 86.1396 89.0893 86.1396 91.1275 86.1396C98.5981 86.1396 104.654 80.0835 104.654 72.6129C104.654 69.3691 104.654 66.1254 104.654 62.8814C104.654 56.1532 108.864 50.1439 115.186 47.8423C123.31 44.885 131.431 41.9262 139.559 38.9703C142.672 37.8305 146.122 39.4439 147.262 42.5658C155.15 64.2202 163.022 85.874 170.91 107.529C172.049 110.657 170.443 114.107 167.315 115.233C156.529 119.165 145.735 123.096 134.945 127.021C129.721 128.922 124.197 125.057 124.197 119.497C124.197 115.073 127.784 111.48 132.209 111.48C136.548 111.48 140.886 111.48 145.226 111.48C148.554 111.48 151.249 108.786 151.249 105.471C151.249 97.5226 151.249 89.5738 151.249 81.6263C151.249 78.3041 148.554 75.6173 145.226 75.6173C136.462 75.6173 127.699 75.6173 118.927 75.6173C116.022 75.6173 113.667 77.9701 113.667 80.8754C113.667 83.7807 116.022 86.1383 118.927 86.1383C123.723 86.1383 128.515 86.1383 133.307 86.1383C137.401 86.1383 140.719 89.455 140.719 93.5489C140.719 97.6429 137.401 100.964 133.307 100.964C131.269 100.964 129.231 100.964 127.193 100.964C119.723 100.964 113.667 107.02 113.667 114.49C113.667 117.513 113.667 120.535 113.667 123.558C113.667 130.286 109.458 136.295 103.136 138.596C88.0439 144.088 72.9514 149.585 57.8593 155.073C54.7381 156.213 51.2878 154.607 50.155 151.479C42.2677 129.824 34.3873 108.17 26.5077 86.5159C25.3678 83.3946 26.9813 79.9444 30.1032 78.8045Z" fill="black"/>
</svg>
